<?xml version="1.0" standalone="no"?>
<!DOCTYPE svg PUBLIC "-//W3C//DTD SVG 20010904//EN"
 "http://www.w3.org/TR/2001/REC-SVG-20010904/DTD/svg10.dtd">
<svg version="1.0" xmlns="http://www.w3.org/2000/svg"
 width="130.000000pt" height="111.000000pt" viewBox="0 0 130.000000 111.000000"
 preserveAspectRatio="xMidYMid meet">
<metadata>
Created by potrace 1.16, written by Peter Selinger 2001-2019
</metadata>
<g transform="translate(0.000000,111.000000) scale(0.100000,-0.100000)"
fill="#000000" stroke="none">
<path d="M445 930 c-98 -60 -190 -119 -203 -131 l-24 -21 7 -241 c6 -206 9
-244 23 -258 29 -29 376 -221 407 -225 25 -4 63 15 223 114 106 66 195 122
199 126 7 7 5 302 -3 421 -3 44 -11 85 -17 92 -21 20 -401 233 -417 233 -9 0
-96 -49 -195 -110z m330 -81 c69 -39 125 -75 125 -79 0 -8 -241 -160 -253
-160 -4 0 -35 17 -69 38 -35 21 -91 53 -126 72 -34 18 -61 37 -60 41 3 10 239
159 251 159 4 0 63 -32 132 -71z m195 -241 c0 -35 3 -101 6 -148 3 -47 1 -90
-3 -96 -10 -14 -300 -194 -312 -194 -11 0 -291 158 -309 174 -12 12 -31 316
-20 316 8 0 218 -119 250 -141 23 -17 29 -33 50 -144 12 -69 25 -125 28 -125
3 0 13 57 23 127 9 70 20 130 24 134 13 13 247 159 256 159 4 0 7 -28 7 -62z"/>
</g>
</svg>
